<?xml version="1.0" encoding="UTF-8" standalone="no"?>
<!DOCTYPE svg PUBLIC "-//W3C//DTD SVG 1.1//EN" "http://www.w3.org/Graphics/SVG/1.1/DTD/svg11.dtd">
<svg width="556" height="315" view_box="0 0 556 315" xmlns="http://www.w3.org/2000/svg" xmlns:link="http://www.w3.org/1999/xlink">\n\n<desc>Généré par Mocodo 2.3.7 le Thu, 05 Sep 2019 03:40:58</desc>

<rect id="frame" x="0" y="0" width="556" height="315" fill="#f7f7f7" stroke="none" stroke-width="0"/>

<!-- Association is tagged as -->
<line x1="255" y1="94" x2="379" y2="94" stroke="#d6604d" stroke-width="2"/>
<text x="308" y="111.0" fill="#2166ac" font-family="Verdana" font-size="12">0,1</text>
<line x1="501" y1="94" x2="379" y2="94" stroke="#d6604d" stroke-width="2"/>
<text x="428" y="111.0" fill="#2166ac" font-family="Verdana" font-size="12">0,N</text>
<g id="association-is tagged as">
	<path d="M 409 69 a 14 14 90 0 1 14 14 V 94 h -88 V 83 a 14 14 90 0 1 14 -14" fill="#f4a582" stroke="#f4a582" stroke-width="0"/>
	<path d="M 423 94.0 v 11 a 14 14 90 0 1 -14 14 H 349 a 14 14 90 0 1 -14 -14 V 94.0 H 88" fill="#fddbc7" stroke="#fddbc7" stroke-width="0"/>
	<rect x="335" y="69" width="88" height="50" fill="none" rx="14" stroke="#d6604d" stroke-width="2"/>
	<line x1="335" y1="94" x2="423" y2="94" stroke="#d6604d" stroke-width="1"/>
	<text x="342" y="86.7" fill="#000000" font-family="Verdana" font-size="12">is tagged as</text>
</g>

<!-- Association made -->
<line x1="51" y1="94" x2="150" y2="94" stroke="#d6604d" stroke-width="2"/>
<text x="98" y="111.0" fill="#2166ac" font-family="Verdana" font-size="12">0,N</text>
<line x1="255" y1="94" x2="150" y2="94" stroke="#d6604d" stroke-width="2"/>
<text x="181" y="111.0" fill="#2166ac" font-family="Verdana" font-size="12">1,1</text>
<g id="association-made">
	<path d="M 161 69 a 14 14 90 0 1 14 14 V 94 h -50 V 83 a 14 14 90 0 1 14 -14" fill="#f4a582" stroke="#f4a582" stroke-width="0"/>
	<path d="M 175 94.0 v 11 a 14 14 90 0 1 -14 14 H 139 a 14 14 90 0 1 -14 -14 V 94.0 H 50" fill="#fddbc7" stroke="#fddbc7" stroke-width="0"/>
	<rect x="125" y="69" width="50" height="50" fill="none" rx="14" stroke="#d6604d" stroke-width="2"/>
	<line x1="125" y1="94" x2="175" y2="94" stroke="#d6604d" stroke-width="1"/>
	<text x="132" y="86.7" fill="#000000" font-family="Verdana" font-size="12">made</text>
</g>

<!-- Association is a -->
<line x1="150" y1="255" x2="255" y2="255" stroke="#d6604d" stroke-width="2"/>
<text x="197" y="272.0" fill="#2166ac" font-family="Verdana" font-size="12">0,N</text>
<line x1="255" y1="94" x2="255" y2="255" stroke="#d6604d" stroke-width="2"/>
<text x="260.0" y="196" fill="#2166ac" font-family="Verdana" font-size="12">1,1</text>
<g id="association-is a">
	<path d="M 259 230 a 14 14 90 0 1 14 14 V 255 h -36 V 244 a 14 14 90 0 1 14 -14" fill="#f4a582" stroke="#f4a582" stroke-width="0"/>
	<path d="M 273 255.0 v 11 a 14 14 90 0 1 -14 14 H 251 a 14 14 90 0 1 -14 -14 V 255.0 H 36" fill="#fddbc7" stroke="#fddbc7" stroke-width="0"/>
	<rect x="237" y="230" width="36" height="50" fill="none" rx="14" stroke="#d6604d" stroke-width="2"/>
	<line x1="237" y1="255" x2="273" y2="255" stroke="#d6604d" stroke-width="1"/>
	<text x="244" y="247.7" fill="#000000" font-family="Verdana" font-size="12">is a</text>
</g>

<!-- Entity CATEGORY -->
<g id="entity-CATEGORY">
	<g id="frame-CATEGORY">
		<rect x="455" y="26" width="92" height="25" fill="#92c5de" stroke="#92c5de" stroke-width="0"/>
		<rect x="455" y="51.0" width="92" height="111" fill="#d1e5f0" stroke="#d1e5f0" stroke-width="0"/>
		<rect x="455" y="26" width="92" height="136" fill="none" stroke="#4393c3" stroke-width="2"/>
		<line x1="455" y1="51" x2="547" y2="51" stroke="#4393c3" stroke-width="1"/>
	</g>
	<text x="467" y="43.7" fill="#000000" font-family="Verdana" font-size="12">CATEGORY</text>
	<text x="460" y="68.7" fill="#000000" font-family="Verdana" font-size="12">category title</text>
	<line x1="460" y1="71" x2="541" y2="71" stroke="#000000" stroke-width="1"/>
	<text x="460" y="85.7" fill="#000000" font-family="Verdana" font-size="12">subtitle</text>
	<text x="460" y="102.8" fill="#000000" font-family="Verdana" font-size="12">picture</text>
	<text x="460" y="119.8" fill="#000000" font-family="Verdana" font-size="12">home order</text>
	<text x="460" y="136.8" fill="#000000" font-family="Verdana" font-size="12">created at</text>
	<text x="460" y="153.8" fill="#000000" font-family="Verdana" font-size="12">updated at</text>
</g>

<!-- Entity BRAND -->
<g id="entity-BRAND">
	<g id="frame-BRAND">
		<rect x="9" y="43" width="84" height="25" fill="#92c5de" stroke="#92c5de" stroke-width="0"/>
		<rect x="9" y="68.0" width="84" height="77" fill="#d1e5f0" stroke="#d1e5f0" stroke-width="0"/>
		<rect x="9" y="43" width="84" height="102" fill="none" stroke="#4393c3" stroke-width="2"/>
		<line x1="9" y1="68" x2="93" y2="68" stroke="#4393c3" stroke-width="1"/>
	</g>
	<text x="29" y="60.7" fill="#000000" font-family="Verdana" font-size="12">BRAND</text>
	<text x="14" y="85.7" fill="#000000" font-family="Verdana" font-size="12">brand name</text>
	<line x1="14" y1="88" x2="88" y2="88" stroke="#000000" stroke-width="1"/>
	<text x="14" y="102.8" fill="#000000" font-family="Verdana" font-size="12">footer order</text>
	<text x="14" y="119.8" fill="#000000" font-family="Verdana" font-size="12">created at</text>
	<text x="14" y="136.8" fill="#000000" font-family="Verdana" font-size="12">updated at</text>
</g>

<!-- Entity TYPE -->
<g id="entity-TYPE">
	<g id="frame-TYPE">
		<rect x="108" y="204" width="84" height="25" fill="#92c5de" stroke="#92c5de" stroke-width="0"/>
		<rect x="108" y="229.0" width="84" height="77" fill="#d1e5f0" stroke="#d1e5f0" stroke-width="0"/>
		<rect x="108" y="204" width="84" height="102" fill="none" stroke="#4393c3" stroke-width="2"/>
		<line x1="108" y1="229" x2="192" y2="229" stroke="#4393c3" stroke-width="1"/>
	</g>
	<text x="134" y="221.7" fill="#000000" font-family="Verdana" font-size="12">TYPE</text>
	<text x="113" y="246.7" fill="#000000" font-family="Verdana" font-size="12">type name</text>
	<line x1="113" y1="249" x2="178" y2="249" stroke="#000000" stroke-width="1"/>
	<text x="113" y="263.8" fill="#000000" font-family="Verdana" font-size="12">footer order</text>
	<text x="113" y="280.8" fill="#000000" font-family="Verdana" font-size="12">created at</text>
	<text x="113" y="297.8" fill="#000000" font-family="Verdana" font-size="12">updated at</text>
</g>

<!-- Entity PRODUCT -->
<g id="entity-PRODUCT">
	<g id="frame-PRODUCT">
		<rect x="207" y="9" width="96" height="25" fill="#92c5de" stroke="#92c5de" stroke-width="0"/>
		<rect x="207" y="34.0" width="96" height="145" fill="#d1e5f0" stroke="#d1e5f0" stroke-width="0"/>
		<rect x="207" y="9" width="96" height="170" fill="none" stroke="#4393c3" stroke-width="2"/>
		<line x1="207" y1="34" x2="303" y2="34" stroke="#4393c3" stroke-width="1"/>
	</g>
	<text x="225" y="26.7" fill="#000000" font-family="Verdana" font-size="12">PRODUCT</text>
	<text x="212" y="51.7" fill="#000000" font-family="Verdana" font-size="12">product name</text>
	<line x1="212" y1="54" x2="297" y2="54" stroke="#000000" stroke-width="1"/>
	<text x="212" y="68.7" fill="#000000" font-family="Verdana" font-size="12">description</text>
	<text x="212" y="85.7" fill="#000000" font-family="Verdana" font-size="12">picture</text>
	<text x="212" y="102.8" fill="#000000" font-family="Verdana" font-size="12">price</text>
	<text x="212" y="119.8" fill="#000000" font-family="Verdana" font-size="12">rate</text>
	<text x="212" y="136.8" fill="#000000" font-family="Verdana" font-size="12">status</text>
	<text x="212" y="153.8" fill="#000000" font-family="Verdana" font-size="12">created at</text>
	<text x="212" y="170.8" fill="#000000" font-family="Verdana" font-size="12">updated at</text>
</g>
</svg>