<?xml version="1.0" standalone="no"?>
<!DOCTYPE svg PUBLIC "-//W3C//DTD SVG 1.1//EN"
"http://www.w3.org/Graphics/SVG/1.1/DTD/svg11.dtd">

<svg width="346" height="432" view_box="0 0 346 432"
xmlns="http://www.w3.org/2000/svg"
xmlns:link="http://www.w3.org/1999/xlink">\n\n<desc>Généré par Mocodo 2.3.7 le Wed, 08 Apr 2020 05:26:25</desc>

<rect id="frame" x="0" y="0" width="346" height="432" fill="#f7f7f7" stroke="none" stroke-width="0"/>

<!-- Association is tagged as -->
<line x1="177" y1="186" x2="177" y2="355" stroke="#4393c3" stroke-width="2"/>
<text x="182.0" y="279" fill="#b2182b" font-family="Verdana" font-size="12">0,1</text>
<line x1="55" y1="355" x2="177" y2="355" stroke="#4393c3" stroke-width="2"/>
<text x="106" y="372.0" fill="#b2182b" font-family="Verdana" font-size="12">0,N</text>
<g id="association-is tagged as">
	<path d="M 207 330 a 14 14 90 0 1 14 14 V 355 h -88 V 344 a 14 14 90 0 1 14 -14" fill="#92c5de" stroke="#92c5de" stroke-width="0"/>
	<path d="M 221 355.0 v 11 a 14 14 90 0 1 -14 14 H 147 a 14 14 90 0 1 -14 -14 V 355.0 H 88" fill="#d1e5f0" stroke="#d1e5f0" stroke-width="0"/>
	<rect x="133" y="330" width="88" height="50" fill="none" rx="14" stroke="#4393c3" stroke-width="2"/>
	<line x1="133" y1="355" x2="221" y2="355" stroke="#4393c3" stroke-width="1"/>
	<text x="140" y="347.7" fill="#000000" font-family="Verdana" font-size="12">is tagged as</text>
</g>

<!-- Association made -->
<line x1="55" y1="60" x2="177" y2="60" stroke="#4393c3" stroke-width="2"/>
<text x="102" y="77.0" fill="#b2182b" font-family="Verdana" font-size="12">0,N</text>
<line x1="177" y1="186" x2="177" y2="60" stroke="#4393c3" stroke-width="2"/>
<text x="182.0" y="102" fill="#b2182b" font-family="Verdana" font-size="12">1,1</text>
<g id="association-made">
	<path d="M 188 35 a 14 14 90 0 1 14 14 V 60 h -50 V 49 a 14 14 90 0 1 14 -14" fill="#92c5de" stroke="#92c5de" stroke-width="0"/>
	<path d="M 202 60.0 v 11 a 14 14 90 0 1 -14 14 H 166 a 14 14 90 0 1 -14 -14 V 60.0 H 50" fill="#d1e5f0" stroke="#d1e5f0" stroke-width="0"/>
	<rect x="152" y="35" width="50" height="50" fill="none" rx="14" stroke="#4393c3" stroke-width="2"/>
	<line x1="152" y1="60" x2="202" y2="60" stroke="#4393c3" stroke-width="1"/>
	<text x="159" y="52.7" fill="#000000" font-family="Verdana" font-size="12">made</text>
</g>

<!-- Association is a -->
<line x1="295" y1="355" x2="295" y2="186" stroke="#4393c3" stroke-width="2"/>
<text x="300.0" y="296" fill="#b2182b" font-family="Verdana" font-size="12">0,N</text>
<line x1="177" y1="186" x2="295" y2="186" stroke="#4393c3" stroke-width="2"/>
<text x="230" y="203.0" fill="#b2182b" font-family="Verdana" font-size="12">1,1</text>
<g id="association-is a">
	<path d="M 299 161 a 14 14 90 0 1 14 14 V 186 h -36 V 175 a 14 14 90 0 1 14 -14" fill="#92c5de" stroke="#92c5de" stroke-width="0"/>
	<path d="M 313 186.0 v 11 a 14 14 90 0 1 -14 14 H 291 a 14 14 90 0 1 -14 -14 V 186.0 H 36" fill="#d1e5f0" stroke="#d1e5f0" stroke-width="0"/>
	<rect x="277" y="161" width="36" height="50" fill="none" rx="14" stroke="#4393c3" stroke-width="2"/>
	<line x1="277" y1="186" x2="313" y2="186" stroke="#4393c3" stroke-width="1"/>
	<text x="284" y="178.7" fill="#000000" font-family="Verdana" font-size="12">is a</text>
</g>

<!-- Entity CATEGORY -->
<g id="entity-CATEGORY">
	<g id="frame-CATEGORY">
		<rect x="9" y="287" width="92" height="25" fill="#f4a582" stroke="#f4a582" stroke-width="0"/>
		<rect x="9" y="312.0" width="92" height="111" fill="#fddbc7" stroke="#fddbc7" stroke-width="0"/>
		<rect x="9" y="287" width="92" height="136" fill="none" stroke="#d6604d" stroke-width="2"/>
		<line x1="9" y1="312" x2="101" y2="312" stroke="#d6604d" stroke-width="1"/>
	</g>
	<text x="21" y="304.7" fill="#000000" font-family="Verdana" font-size="12">CATEGORY</text>
	<text x="14" y="329.7" fill="#000000" font-family="Verdana" font-size="12">category title</text>
	<line x1="14" y1="332" x2="95" y2="332" stroke="#000000" stroke-width="1"/>
	<text x="14" y="346.7" fill="#000000" font-family="Verdana" font-size="12">subtitle</text>
	<text x="14" y="363.8" fill="#000000" font-family="Verdana" font-size="12">picture</text>
	<text x="14" y="380.8" fill="#000000" font-family="Verdana" font-size="12">home order</text>
	<text x="14" y="397.8" fill="#000000" font-family="Verdana" font-size="12">created at</text>
	<text x="14" y="414.8" fill="#000000" font-family="Verdana" font-size="12">updated at</text>
</g>

<!-- Entity BRAND -->
<g id="entity-BRAND">
	<g id="frame-BRAND">
		<rect x="13" y="9" width="84" height="25" fill="#f4a582" stroke="#f4a582" stroke-width="0"/>
		<rect x="13" y="34.0" width="84" height="77" fill="#fddbc7" stroke="#fddbc7" stroke-width="0"/>
		<rect x="13" y="9" width="84" height="102" fill="none" stroke="#d6604d" stroke-width="2"/>
		<line x1="13" y1="34" x2="97" y2="34" stroke="#d6604d" stroke-width="1"/>
	</g>
	<text x="33" y="26.7" fill="#000000" font-family="Verdana" font-size="12">BRAND</text>
	<text x="18" y="51.7" fill="#000000" font-family="Verdana" font-size="12">brand name</text>
	<line x1="18" y1="54" x2="92" y2="54" stroke="#000000" stroke-width="1"/>
	<text x="18" y="68.8" fill="#000000" font-family="Verdana" font-size="12">footer order</text>
	<text x="18" y="85.8" fill="#000000" font-family="Verdana" font-size="12">created at</text>
	<text x="18" y="102.8" fill="#000000" font-family="Verdana" font-size="12">updated at</text>
</g>

<!-- Entity TYPE -->
<g id="entity-TYPE">
	<g id="frame-TYPE">
		<rect x="253" y="304" width="84" height="25" fill="#f4a582" stroke="#f4a582" stroke-width="0"/>
		<rect x="253" y="329.0" width="84" height="77" fill="#fddbc7" stroke="#fddbc7" stroke-width="0"/>
		<rect x="253" y="304" width="84" height="102" fill="none" stroke="#d6604d" stroke-width="2"/>
		<line x1="253" y1="329" x2="337" y2="329" stroke="#d6604d" stroke-width="1"/>
	</g>
	<text x="279" y="321.7" fill="#000000" font-family="Verdana" font-size="12">TYPE</text>
	<text x="258" y="346.7" fill="#000000" font-family="Verdana" font-size="12">type name</text>
	<line x1="258" y1="349" x2="323" y2="349" stroke="#000000" stroke-width="1"/>
	<text x="258" y="363.8" fill="#000000" font-family="Verdana" font-size="12">footer order</text>
	<text x="258" y="380.8" fill="#000000" font-family="Verdana" font-size="12">created at</text>
	<text x="258" y="397.8" fill="#000000" font-family="Verdana" font-size="12">updated at</text>
</g>

<!-- Entity PRODUCT -->
<g id="entity-PRODUCT">
	<g id="frame-PRODUCT">
		<rect x="129" y="110" width="96" height="25" fill="#f4a582" stroke="#f4a582" stroke-width="0"/>
		<rect x="129" y="135.0" width="96" height="127" fill="#fddbc7" stroke="#fddbc7" stroke-width="0"/>
		<rect x="129" y="110" width="96" height="152" fill="none" stroke="#d6604d" stroke-width="2"/>
		<line x1="129" y1="135" x2="225" y2="135" stroke="#d6604d" stroke-width="1"/>
	</g>
	<text x="147" y="127.7" fill="#000000" font-family="Verdana" font-size="12">PRODUCT</text>
	<text x="134" y="152.7" fill="#000000" font-family="Verdana" font-size="12">product name</text>
	<line x1="134" y1="155" x2="219" y2="155" stroke="#000000" stroke-width="1"/>
	<text x="134" y="169.7" fill="#000000" font-family="Verdana" font-size="12">description</text>
	<text x="134" y="186.8" fill="#000000" font-family="Verdana" font-size="12">picture</text>
	<text x="134" y="203.8" fill="#000000" font-family="Verdana" font-size="12">price</text>
	<text x="134" y="220.8" fill="#000000" font-family="Verdana" font-size="12">rate</text>
	<text x="134" y="237.8" fill="#000000" font-family="Verdana" font-size="12">created at</text>
	<text x="134" y="254.8" fill="#000000" font-family="Verdana" font-size="12">updated at</text>
</g>
</svg>